<?xml version="1.0" encoding="UTF-8"?>
<svg viewBox="0 0 199.98 199.97" xmlns="http://www.w3.org/2000/svg">
 <defs>
  <style>.cls-1{fill:none;}.cls-2{clip-path:url(#a);}.cls-3{opacity:0.7;}.cls-4{fill:#702c90;}.cls-5{fill:#ffeed7;}</style>
  <clipPath id="a" transform="translate(0)">
   <rect class="cls-1" width="199.98" height="199.97"/>
  </clipPath>
 </defs>
 <g data-name="Layer 2">
  <g class="cls-2">
   <g class="cls-3">
    <path class="cls-4" transform="translate(0)" d="M200,169.59A30.39,30.39,0,0,1,169.59,200H30.39A30.39,30.39,0,0,1,0,169.59V30.39A30.39,30.39,0,0,1,30.39,0h139.2A30.39,30.39,0,0,1,200,30.39Z"/>
   </g>
  </g>
  <path class="cls-5" transform="translate(0)" d="M160.18,68.78l-13.61,4.57c-2,.9-7.53,7.28-17.09,19.59-10.15,12.76-15.36,21-16.22,25.07l-.58,11.39-.29,6.84,1.17,17.31,18,.45-.29,8.67H102l-26.07.45.87-8.2,8.4-.47c4.35-.45,7-1.37,7.82-2.73.58-.9.87-6.39.87-16v-5.92L93.56,118c-.58-2.73-5.22-12.76-14.19-30.08C70.11,70.15,64,59.67,61.12,56l-16.8-3.65V44.62c.87-.9,10.14-.9,27.23-.45,11.87-.45,21.72-.45,29.54.45L100.51,51,82.85,53.76c5.5,12.75,13.91,30.52,25.2,52.85,14.77-17.78,22.6-29.17,22.88-34.17l-15.06-3.65-1.17-8.21h25.2l23.75.46Z"/>
 </g>
</svg>
